<mxfile host="65bd71144e">
    <diagram id="oBb6ehUNKPvK3fu4bTJo" name="Page-1">
        <mxGraphModel dx="637" dy="586" grid="1" gridSize="10" guides="1" tooltips="1" connect="1" arrows="1" fold="1" page="1" pageScale="1" pageWidth="827" pageHeight="1169" math="0" shadow="0">
            <root>
                <mxCell id="0"/>
                <mxCell id="1" parent="0"/>
                <mxCell id="2" value="" style="shape=ext;double=1;rounded=0;whiteSpace=wrap;html=1;" parent="1" vertex="1">
                    <mxGeometry x="240" y="240" width="460" height="370" as="geometry"/>
                </mxCell>
                <mxCell id="15" value="" style="shape=ext;double=1;rounded=0;whiteSpace=wrap;html=1;fillColor=#eeeeee;strokeColor=#36393d;" parent="1" vertex="1">
                    <mxGeometry x="240" y="240" width="460" height="40" as="geometry"/>
                </mxCell>
                <mxCell id="6" value="" style="ellipse;shape=doubleEllipse;whiteSpace=wrap;html=1;aspect=fixed;fillColor=#FF0000;fontColor=#ffffff;strokeColor=#6F0000;" parent="1" vertex="1">
                    <mxGeometry x="250" y="250" width="20" height="20" as="geometry"/>
                </mxCell>
                <mxCell id="12" value="" style="ellipse;shape=doubleEllipse;whiteSpace=wrap;html=1;aspect=fixed;fillColor=#FFFF33;strokeColor=#CCCC00;" parent="1" vertex="1">
                    <mxGeometry x="280" y="250" width="20" height="20" as="geometry"/>
                </mxCell>
                <mxCell id="13" value="" style="ellipse;shape=doubleEllipse;whiteSpace=wrap;html=1;aspect=fixed;fillColor=#00FF00;strokeColor=#648A4E;" parent="1" vertex="1">
                    <mxGeometry x="310" y="250" width="20" height="20" as="geometry"/>
                </mxCell>
                <mxCell id="16" value="&lt;b&gt;&lt;u&gt;Single SPA Orchestrator/Shell/Root&lt;br&gt;&lt;/u&gt;Root Config and HTML import&lt;br&gt;Orchestration via System JS&lt;/b&gt;" style="shape=ext;double=1;rounded=0;whiteSpace=wrap;html=1;strokeColor=#648A4E;fillColor=#FF66FF;" parent="1" vertex="1">
                    <mxGeometry x="250" y="550" width="440" height="50" as="geometry"/>
                </mxCell>
                <mxCell id="20" value="&lt;div style=&quot;&quot;&gt;&lt;span style=&quot;background-color: initial;&quot;&gt;React SPA&lt;/span&gt;&lt;/div&gt;&lt;div style=&quot;&quot;&gt;&lt;span style=&quot;background-color: initial;&quot;&gt;Methods:&lt;/span&gt;&lt;/div&gt;&lt;div style=&quot;&quot;&gt;&lt;span style=&quot;background-color: initial;&quot;&gt;1.Bootstrap&lt;/span&gt;&lt;/div&gt;&lt;div style=&quot;&quot;&gt;&lt;span style=&quot;background-color: initial;&quot;&gt;2.Mount&lt;/span&gt;&lt;/div&gt;&lt;div style=&quot;&quot;&gt;&lt;span style=&quot;background-color: initial;&quot;&gt;3.Unmont&lt;/span&gt;&lt;/div&gt;" style="rounded=1;whiteSpace=wrap;html=1;strokeColor=#648A4E;fillColor=#61DBFB;align=left;gradientColor=none;" parent="1" vertex="1">
                    <mxGeometry x="250" y="440" width="210" height="100" as="geometry"/>
                </mxCell>
                <mxCell id="17" value="" style="shape=image;verticalLabelPosition=bottom;labelBackgroundColor=default;verticalAlign=top;aspect=fixed;imageAspect=0;image=data:image/png,iVBORw0KGgoAAAANSUhEUgAAAOEAAADhCAMAAAAJbSJIAAAAkFBMVEUiIiIA2P8jAAAA2v8A3P8A4P8A3f8A3/8A4v8iHx4iHBoiHh0jDAAiGxkiGhcjGBQjCQAjEwwjFRAjBAAjEAYLwOIGz/QNudoIyu4VkqsdWWYKxOcXh54WjaUeUFsUmrUSpcIacoUhKSsfRE0PsM8cZXUZfJEgNz0RqsghMDQba3wdXm0fQkocZnYeTVggOkA8g5PMAAAYe0lEQVR4nO1d6ZaqvBKVJEBAZFDEWdS2ceq23//tLtiSVCBAsMXzrbvcf/osj0IqQ1WlsqvS673xxhtvvPHGG2+88cYbb7zxxhv/Ela/b/3rNmQYBD76hR+6T2pRf+gg5Jy+vg4BQuHgOQ99DFaI1qv9QiOGFo2Pq88ecv7cHtdBh2081ijVdZ1qk9kaBc9o6yOwRqdY0w2CsaZhjIlh0mk8R479+CP7IZrHETVvz8yAsUGjpT98XqtbwAtiatwbkgMTXYuv6MEGuegwi3RSeKaGTe2Mntt2JfhrzdAkwIQuklHYfkl66DIpddn9mfSIXq51UEKljbl3+spz2jXJQ+cpJVVP1MyF1+9IkgqMElrZmkxGg8yCUP1xNvqc6pU9loFMH5gWf0DwWSvgTUa8RJ7a0yz0Ma6eEbmIk1euxf5Bvl5EGc3oE6lMrWCwkcmXqmfhU3M26lwwBjTmKwYTU6ep8TKNshKkk5PT9Kw+2uKiysqeqWvTaaSbYGnS68uMf5Do7LWGFn8ehmHv43u1xyVNT8wlqjeP4WlSGMDM4hyTa5j5SeF8w5cnXrxsnvoaeyudjZxMy1m2F45Sa63pBX2oLw41w2ihrSH+INXDqdfgD+/94qKfKfuCvn2R5Q+WJhPwW+jW1OO67As6n5hJpS3z3L04gKkt3SLHhd8ZjBb5A3H0okFEUd4qPSm90kWn2BTXlT6x5Up1tNaE3kjX7bzsD/UHbMroZ0Xt/Dd453wVyhV43+/FptByoq0latBCK2EAMR2vkUyXDC+09oVPB9rnzddPcmNg+adjofGr0kwdhBMdfEUzo2/kSh/XQ5P8jfT0ArNvDfNVSDaVPWqh60LwUfR9YcsR/ERwnIm5qvYP7I98EI3lC3ZS3jmXkH7VGIIBSggUwYhOcIWNLoLPoI8Pfs070TjfTI1fME2dzb3hTeYp3AmWDpM5F0L02zN1W+v8DLd5r+pe99MUTbHijEmNHRxGTLd5l6AYurVmrcm8PcnLl6z5WbFWnwfLyhtHPxo38+FpbAJR6OwmooX24FOcftr4IDTJu3XWYsfyGNzLvXVYU1gSfTSD01HPNrL9cAzsJcEXheeEq/tPyKRz9ztY5u/aK70LzTGYqeYEef0p/GCxU/HE2vXr38AUjep8Ge4WYE4a4x20EnSjtL/qWS5bG1bXqoZZX3Or6EH10RHoFWLyWYtp2eurem3uKZrrrrdQTJXqV+WoIVpKIwLYvCgvqlHrjn0YiDlQO/Xpgs6SIAzRvtQdFL44OvdqvHw4zDZL3rnioogk2rUYDa5M48aowd9gHe62t+VebXgQN0qasfDaxMaHyV1dkU2de/cE2B+5hNN2atvdRXAUyXjUKv7JvGFFI/U47HUuYVsf2OtDR0ZrGcNmBrHzLaI7Nx+UkO0Pfht6bPfzwfrR97YFl7BlX6JJIbQRt/r943OnLQYPSog2piaCLts8wL7mEnYdUnxwlqJV2ebTcwu9/zoJH5stzlbm1OhX9fDn4GWz9CFrMVxzATH3SzE+KZvER1dHezxi8e0DD/aT6Q8PmONI+ZDR/WTWomN7aPVZ7FJVQivgth5ru/CDj6K6cfPySA05duzT9BCLtKl6wDzaqWHy4/aCOZ+zpqrNCLjX1rFf2kP5JNMPam4Xirmd0NeZbvGB3qFbtQYzz7v7QA1a5FvRuVLUC6rR3D6gGY926x9qj4lftntquRV1P7gwdMWiiXvm4OBIKQI62rPXdn3C1m4rarlcc5rAFUXsxExR2/Cpc+k6YBqwrajKkgdahkBnpN/jkusrBRH58v/pmnXC1bZC36MZ0zJYE5iGHpy98+aJx0ILtGtVCty2ZpM/hHahoFGABsK417QUuVva/TEwN/m0SUVYPR6cKVsFYEVIo6/JZk7nTlsPrIjGyCXgpMgsO/zvWUO7w1mb1f9H8JBwUr98wCKUDpIFtA1d15sef/8ycwhsb0N3enxDgTXLc13P84Z3pP903UEIv1E/5Vkc+gWna/y0snYv2veGfISMz5/1/PJ93m63SYr0z/n8eVlfTzNuS/bIrpGRq9IXHOQztSaLCVu2FzgjhNDhuocnTLpulqFDdpG+/NjdyOJDt2zweGSh+6OnFCj3uHSoavqpaAi51/My3i80qot8EwUYOjWiyXGWXA4IjcLhAAwWP9J7Cd2EhQXvq95yM7r+z/dyM9ZuBD5SiuCr4kYWN6k53cfJ2k7lvNNm/WO+9rs/Au5BVbMfZcLZ8+VmQahpPC5ZSVJCUkGjyez8g1DoWfxs7SWkKBZgTxfFfHmMqIR3+SQ5DZPiSXze9V6paNJZecrfh82uhANiYmLSXC2/iLpnM+P0MuTvq2FhPQ2ugz6WUUsJMz5zurRE3D5s+SCynyO/y5WYipdltChwvHPRzIwhbWjRdDGe7PfH4ybD8Xjc7yeT8WIaYZOmplKatyEXUcfHszPqRsh+iNYZBbhevHSsABMBX9ZfO+ee+TXyUziOk/3xR6P7p/3Ddb4EJEXS9AJiGvvzyH+68zZEP7OI1r0903x6quE3E7Bl8gdNGXZW3x5wPme60vaZ5TFrBSUm2cxR8ES12nfQdlw9OW+yGYvj6vyRjpfHFlfqa6o937LgbxA6XZJ4UmuFMKHRsifl2z4AG51icNpQfFVqmfez81fmUmYn83w8MFYm9wRntsug52HqJWUJiL3L8jiVJTncH2/ox7VqzkodBui6rxm+xex84t5VOpu/eVu36ls50C9aPvtu3qCT+RRVbyd0cX40T47LN5/U5Ftlk0rc2DncdrVxkq0dGylDtHlugGqME9aj7V9k7KP1WCJfOjPZ7t0UBRzFuebHRgtGUa8X8iSVAquTnRymtkcyYbGZyvjgXLVGP8XcCe03o2Vz3jHekBD5tr/YHNWTdrsAHrUp7KyZo4+jj9lUsmBwxoF/JG818OKSfLcU0cytYDsoUV9WNrMZ9g/oHLiA2SQlMQrR10oiJKbjj9YZmH20LaWIEhOnZuiWy8y2pMI0HQKV2EwgLmDEAlcYg6TwAQvm6Fk8306FzDJpi02jm6DdcpTlW9HJlrkS/QOfpvzJPB/KaMcl+RUxkikbPknzAEaWDX00i+bL0L5bDKMs3wrHB7ig2UkJUJk+HwWtZY5sBu/CZwDPc2DhWRjaG4zcZXEgMT0Gqhpn4BTyrVKdnPiOECDi05SxMPsnnvB1fkSD82McHl91P3NNqgvnlVaQ5UUXyIDS5CMJgp9IWIFYn55LSf98G2zmMVputSuj9KmzEgTDKlKi0EX34Rgdi5OUwc18kUJmmBILqZDNksr3LbM3PI3lrjXdtWySAaRKwp1vl8vkfEVoKJvFYJrfN/OWy1KQJLxSG30VZhvdNy/GQha6qVXYU0b4zNUmW5lyNeOmOnCRbhoMI90zGpPE9SVN4e6LuQwLb5GSrm10FXOkzYXboMRFehbRZ6MK57LYu0OWs4dxeYAstBaqCaReUbwruwTc3GByC4GzbqskKNnoO4KUORLtanccooC1+VZs2WGcvRx0f1LqlGGv7B0Z5rI8ozhF04hHiklrnpi1kopYM4pCHQFcn2/lMS2XeW4hy5yV9LYvZJWADuwVd+pcJI0e+j0/Jw1oep2XO/qagmEk0aDyu0IdAXPakG/FLBUeIytge1h6Ka7bygITRDuUvstkyvxBh0idwxJsFINXkEqP0YZ1BOimyZtlp5ap7kTs3+VNk19dYAJrh8JLrB2zVPTqMD2jfzYYc3QB+w6zioAM46AK2SzccyOxz/qm5JDyLF6ZiFEx2uKs2HQfswYpHDkFJ5BtROUbGx8QJ/RPFQbIhDUgZnOr2H1gbyuDUZp+3Lk12dpWoXrZMCXOlGUo93/YHhTrc5XTcp4vyxWJWdQIaF9/zFZy8BhHT+ObG6X8HAtQyaUBBtAUelGjAyCtODxGXDAv7rxmjt46pzQBy4cGikE7C3AfaJk6BfV0okhS5bomby4phkfFHAQZSoQH77vYKVSNJNizQmaUJTtwbnrUUyG4+523dlUYfNBvVSjbT+7/VX2jCsAa0BIXhpkeHs5rRmGRYVysAxTG9avw1paix1mc2U20Fvg+FtAq5UdxrSFxuioxENtyd5dhFygcxBmr0q8msF8wbsF75o5scX2DiFarPAooQbqzL/y3tWucpDK9N7jCnxmzFjQo98J2zIWpwekHpR6tAy8FIB1Clo9VB4k5Fwax1iUtgR/5F+Y252+2y7MFBqM8hGB7VwdaWmZQQbXMAeM8isKWmVHw9Xa8sZDFa2Sjz6M5ddAP5V0UV2F6u7gkT8UspC0wCVslv2YkKOYJSUpWMIZ9vYRl2q/3XYxnqKIyMYMRnWgjm1UAmIcSJaw2hhIKCViIejtid5BU8DT5Am33QHAwJOltQRFVS1hyoaAybUn08qsqIrAkA1L0LGvBN/qazDLzc6MaSHpG0KXyGFQVOMG3kC3BXExM2tQnRBNc29RQQUKyL/YpCExqLQ7LM/BZQwurm/e2MVMfxILbWV6JzY639FeCT5OuU/UEBLZqyt0NYmXqD+Tu+u9TS7ZbRdWUFE3BF2xTZIAzr8ubZr4TambO57DsgiIpDYe1a5ymZU1SHHj1heNxDVWcpFlbuNpXTplbFiQsuzXs3KF6CIvK2ytVDlXdDIBMHNni9WMeNNiqbYHLHILSBpGHqypQzust70cUrb7l8No+shNaa8BDRvRbRdtwP57VvLgH4wFAfEs+hKXY3Lb0VDWr3/d5upghJTEGIK5JVYovAxIMm4u3YLz4rWndPNVXxb4EVRnPTDUoGAzX5QJWJTdAJa0QL+VahBz73DstauL+qYZjaZaaDo4Hxoh1XLPBCA4wXnqRRwWsPoidNVdwAsfAaxRXd7f3URkxNUqL0HIJj7QEzPI3BkzFmHelqvSu0Acb9xqyfphxXSCrB4LxxQ3m8EuTT1R9Ujp94pSjzIpUxyRE2MLxk1HjyYZnoPkI/qw7UOXxoswfdfjxbTmO5/bGkipKmJZTK/sHTo36ssHORf+uObhwDrCcGJnKDl9zIOF4jW7C6mHk/syNUsMJbZJauBZKiuxGTBcfZZsEuAA3bejna7hmhzFAS/hsMq2vbS6IeCOpVH3dZydfx6ylPBiPNYk1DcKMHnJvLyYGHX9KzrZAHPH3eIDFJCoD+320ngpnwFNJVpEo4lYoWEknh5H00R4vRzm/LTzg2Mp8dytA83hMblc6RPvlQcoO4Mbe/A2wNR0Cl2rBmmOn0av2L8J8Inrcl9F/mGnJHQ5A+Knw3QcOQruvjx8PjQLpF4Cl0O6dVHuQbzmDQj1ftRsGgi+hOqxmkNmwJKPV47utsCBznYG2+nZlH1t9wtfyfcRqyBiWb88MkfmjWtXH9cQKv9k1AH1fbBh4c149ArALyyfdKuAn3FwfW14FoWaATrEhshSJtlbd2lpoWaB9GUZ8EOoY89NRbrS52X8oe8cFW581e5ecFDVE62OB3YHp3mvRr/5HVHCYCZ18ojAfSB6uBzsbi9P0pcqmAVzNwCAwJLbdXYmBHyaLInuF4G07iqkrklRuz9Cj1elO1+K2AUYfQb191conHCE4+4WWoUBOtB003xhF7iWmx17rFOjR16LoiGCDThI3E5JpFdES85M/9UDBHVaPqRlxkwkJpqk2vsZl/iw2p/NHbmmx0VYrpVlg05wkPTRkbCEhggjinHqLXIQMYCsmLmKXxcj09TqW5O1gAydVtc6bMPRXRjmSREw6ZlqvECJHG6Zs1PNJMkD6bEERc1eCyMj6htHqvpcinF7xGoDf5rP+LriL1gM5QTf4UdXv+qjmHDlV8jOpQ6IOy+8VzY4wnjOEnCEwxQEv6EE/1YnCSJqn0fdChH62lXyV1JtfDf4m301Gx16V12MOwxxvknWYpZf/Rmi4Z4M1KU1WBmAKzaVzky3LD//axhONVuW9E32a+M+5QMgK0XZRmZl3u2dmup9t13aW3RVyYpqhfLbJTWHqzaTe6+jrvDouTL06SQ8b+v7y15wniCG6bkhNEYHf5ENtfJwlc14Kgn4q6VML1ghZLTeTSK9OWft9G41Wu0f1ZxVs39lOaOVs/X3zrWAAuEZIOwUsf9RJEf4i+6fj+/c00uFpDnNIjYYs0lta0vqp+ZUMQ7RbjiuXhbQ1+i0JeDyZ7I+bTRzHswzp33izyXKBx9NIM6mucsiYd0Aq3uUJdxBWId3GnpJJ/UCWpBQSuQ3DKKRzt3mWdsu66rh+SypkXUJgx9A7zVVnMrJ9Be66oML9LSbzRM26kNvTwKtSRbOxoZvPK/ghES67F3OT/LAiSq+ubZJqwmtys8pPLGxyE+1mfszFZjn3kJ/5x/fP/0F9GjtLuz5dMiuWKkXzD8Vp7pLllnV1yw8PbqmIvMaQctXUP0nIwojr3CG13KzAkP/1ncT7caRnoqqXlriDZBUmyHSyWW3XvVvuO9hDO2wH9dX9VZY1daKySkrZ7cCn63eyBBcIpt5rBgPgXioKCLjfXr7c1DdwAq+cEcILQ3Z++QOIslVXZbZsb+jYoNZXcjlvk2SZYrVaZX+WSbI9f8/ZAWGqtUZDt7rCBKu4SeLuVU0l+a8AUDQRR04wHA4DiOHQGwLDSq+1dpwX2e3+Jh2uaBpr7oHCiFIVCOq0mqv6hnNV84IqQ5yJ2sTGAmVYZYURQbZQY9zK4pWiOq8qyD0avYnH0z8B7kNpIwWOYzHZNWlI9X79M/h8ac4RCHjmBDZ+xIUG6+/S78aB4Wuj83pmnIOrcFkIWIrFHC5Y21OhvtULb9LhlURV2GZAjkLsGMiukjDyupt0eIE/JSoWrFEKGRKwxq6hcn8AY1WWuZrPBl8QShsZUMUU5FNB0ofCIuzBi9c6v+ORWWlFDj3MIKWXX2HsnXxka8BvnejcIKKKeH71D/j9K9j8yMbd8jkRTPUEhxmp38zxLhG2vrMLaBusZZnkIBMSa3WVZ4Wn5POadiyhdWo9Wywb8vm9PrxUR/HegBQo33e2TJdojUduYXG/wJ0dC1jUQPXuhx5c/x0X+HzoZqkApHMTQNDSm8p4A/BbCTsurM+1dpuICazVABh2bc7fuISt6zO1w4M32sCLSthoTtucTLNdftcSspSrlnfYCRfk3sey12a6/eclhDbjV0Dy0y7Bis3SjmNR3ueDElqhyPfW1y2ZDNGrNU3r2uF9F2YZmIpFDRjYFrjN/aePYPDw/YfOGlZgaHv/IbhnquPd08O3dI4+Rf6RqVCzCoBfB9511JuVUWhZwx+Vbs8zxk4LpfjKvcVDV9rI7j8k0526NmV2+AX7Q6291raEe6u5iC2uPOa3I3R/sxw7QWgqbMTgumN4QMGXIzZVbo6/ofWF54+DxWmUg16OwKqmMVCpyrRlEDzp/FYyHvRSnC5oC5kNdIWE253pUa18LD/S6zwizO9+UFJqNtrAJZgljLk7OKbG9KAw7dx55ZHe08Gr7lAFGrAj1IrDv0l/trcAfEdsnJstI08171yVCsVDmhZiHy2hmcdk/WthLDQR5D46TUqLF4R9wfkhUzWN3ekcxjCrgUSHXElY4tw1ogYSc5/VmO7+ckAhp792mrpoKRDEzLEHGidWGsR049SpSJ7+ZHR/QAqO8kgpI5ajmHCVWglxmEZzgW6U5ZBVKklryOsnvkBCwJEtlZ9jTRqdxOKw2NyWihGcppBfjenkp2qq+qxWwIvuCmLTtILK3R/tYjFjwIi+ygrCHom+HKGbnTQ30j7whK9X0Glg5SS6LVt9Fx02IkMzVZa+lC6JEpHmSMz4JLmzAtTvfQnpK3Nr2ArT5+K6sEN0KZabJaQy9d35ERerRrI7K8TUPQsSGjqOd7N38pQDrCesQRn/66NUER7rk1213RRLq/7O1enylN3Tdf+C3+O2s1SVsTOEoB6GOU1+bmRm55psyvcIEZLUmzq0LuaQYYMu4s/dL0X6OiP8XAcrXR38FMDSFWmDyHQxzdjn5YQduu81rRy3NIw3SinVpuPJAsO7idpcevJX2D9iv8vZzKoJV6MPaTJ7kSPd6hDgzwhLYReJfJpqwpU0h6z0vOg52SOqkAVeRPnIylGfVEO0rLyO6P5ATYXQ8EwUE2mL47fy2sU1w2BVJyPRDt273AWgb0OeeYFThZ+MWk8pK3RKd1awR0qKm78AwU560Y6JN+sHE5KC1F0wyxkr2DAkBepfAQut98BE3O5ijDafSO6iKcEducne0EHSU9ZlcaPJ6QwD1EuO0+yGPz1jn29S49+4XW+ANRyN5qv9L1lcp+Z0843+nmL4pwb5CJ0+rh+HMMu1fM7B1yAYZTcKz+frA/pzlz0Flm2r0mLaPNR1n//UN95444033njjjTfeeOONN974v8X/AE+/jMBGGa+AAAAAAElFTkSuQmCC;" parent="1" vertex="1">
                    <mxGeometry x="369" y="455" width="75" height="75" as="geometry"/>
                </mxCell>
                <mxCell id="22" value="&lt;div style=&quot;&quot;&gt;&lt;span style=&quot;background-color: initial;&quot;&gt;&lt;font color=&quot;#ffffff&quot;&gt;Angular SPA&lt;/font&gt;&lt;/span&gt;&lt;/div&gt;&lt;div style=&quot;&quot;&gt;&lt;span style=&quot;background-color: initial;&quot;&gt;&lt;font color=&quot;#ffffff&quot;&gt;Methods:&lt;/font&gt;&lt;/span&gt;&lt;/div&gt;&lt;div style=&quot;&quot;&gt;&lt;span style=&quot;background-color: initial;&quot;&gt;&lt;font color=&quot;#ffffff&quot;&gt;1.Bootstrap&lt;/font&gt;&lt;/span&gt;&lt;/div&gt;&lt;div style=&quot;&quot;&gt;&lt;span style=&quot;background-color: initial;&quot;&gt;&lt;font color=&quot;#ffffff&quot;&gt;2.Mount&lt;/font&gt;&lt;/span&gt;&lt;/div&gt;&lt;div style=&quot;&quot;&gt;&lt;span style=&quot;background-color: initial;&quot;&gt;&lt;font color=&quot;#ffffff&quot;&gt;3.Unmont&lt;/font&gt;&lt;/span&gt;&lt;/div&gt;" style="rounded=1;whiteSpace=wrap;html=1;strokeColor=#648A4E;fillColor=#dd1b16;align=left;" parent="1" vertex="1">
                    <mxGeometry x="250" y="310" width="210" height="100" as="geometry"/>
                </mxCell>
                <mxCell id="24" value="&lt;div style=&quot;&quot;&gt;&lt;span style=&quot;background-color: initial;&quot;&gt;Vue SPA&lt;/span&gt;&lt;/div&gt;&lt;div style=&quot;&quot;&gt;&lt;span style=&quot;background-color: initial;&quot;&gt;Methods:&lt;/span&gt;&lt;/div&gt;&lt;div style=&quot;&quot;&gt;&lt;span style=&quot;background-color: initial;&quot;&gt;1.Bootstrap&lt;/span&gt;&lt;/div&gt;&lt;div style=&quot;&quot;&gt;&lt;span style=&quot;background-color: initial;&quot;&gt;2.Mount&lt;/span&gt;&lt;/div&gt;&lt;div style=&quot;&quot;&gt;&lt;span style=&quot;background-color: initial;&quot;&gt;3.Unmont&lt;/span&gt;&lt;/div&gt;" style="rounded=1;whiteSpace=wrap;html=1;strokeColor=#648A4E;fillColor=#42b883;align=left;" parent="1" vertex="1">
                    <mxGeometry x="480" y="310" width="210" height="100" as="geometry"/>
                </mxCell>
                <mxCell id="26" value="&lt;div style=&quot;&quot;&gt;&lt;span style=&quot;background-color: initial;&quot;&gt;HTML, CSS, JS&lt;/span&gt;&lt;/div&gt;&lt;div style=&quot;&quot;&gt;&lt;span style=&quot;background-color: initial;&quot;&gt;Methods:&lt;/span&gt;&lt;/div&gt;&lt;div style=&quot;&quot;&gt;&lt;span style=&quot;background-color: initial;&quot;&gt;1.Bootstrap&lt;/span&gt;&lt;/div&gt;&lt;div style=&quot;&quot;&gt;&lt;span style=&quot;background-color: initial;&quot;&gt;2.Mount&lt;/span&gt;&lt;/div&gt;&lt;div style=&quot;&quot;&gt;&lt;span style=&quot;background-color: initial;&quot;&gt;3.Unmont&lt;/span&gt;&lt;/div&gt;" style="rounded=1;whiteSpace=wrap;html=1;strokeColor=#648A4E;fillColor=#f0db4f;align=left;" parent="1" vertex="1">
                    <mxGeometry x="480" y="440" width="210" height="100" as="geometry"/>
                </mxCell>
                <mxCell id="30" value="" style="shape=image;verticalLabelPosition=bottom;labelBackgroundColor=default;verticalAlign=top;aspect=fixed;imageAspect=0;image=data:image/jpeg,/9j/4AAQSkZJRgABAQAAAQABAAD/2wCEAAkGBxAPEg8ODxEQDw8PFQ8NEQ0QDhAPDw8SFhIYGBYYFRUYHjQhGCYlIBUVITEjJSsrMS4wGR8zRDMsNygtLisBCgoKDg0OGxAQGy0lICUtLS8tKy0tLTAtLS0tKy0rLS8tLS0tLS0rLy0uNTUuKy8vLS0uLSstMS0vKy4tLy0tLf/AABEIAOEA4QMBIgACEQEDEQH/xAAcAAEAAgMBAQEAAAAAAAAAAAAABgcBAgUEAwj/xABGEAACAQICBQcICAMGBwAAAAAAAQIDEQQhBQYSMYETIkFRYXGRBxQjMkKCodEWUlRicpKTwSRTskNzo7HS4TM0Y6KzwuL/xAAbAQEAAgMBAQAAAAAAAAAAAAAABQYBAwQCB//EADYRAAICAAMDCgUEAgMBAAAAAAABAgMEESExQXEFElFhgZGhsdHwEyJSweEUFaLSJEIzYvEj/9oADAMBAAIRAxEAPwC8QAAAAAAAAAAAAAAAAAAAAAAAAAAAAAAAAAAAAAAAAAAAAAAAAAAAAAAAAAAAAR7S+tmFwyacuVqLLk6TjNp5+s9y3bt/YY1Y0pXxinXqRjTo3dOnSWbds3KUnv6srdOR7+HLLnPYdTwVypd0llHr0zz6FtfHZ1kiAB4OUAAAA42sOKrUKfL0Upcm0505R2lKm8m8s7rJ36r5M8eidcMNXtGp/DzfRUa2G+ye7xsbFVNx5yWaOqGDunV8WCzW/LauK2klBrF3zW553NjWcoAAAAAAAAAAAAAAAAAAAAAAPhXrwpxc6kowjHNynJRiu9sA+5pOSim20ks23kkiGaZ1+o0rww8XWnu5RpxpLu9p/BdpB9L6fxOLfpajcd6pQbjTXBb9+/N9pvhh5S26e+gl8NyNfbrP5F17e7b35FiaY14wtC8aT84qLog0qa757nwuQfTGtWKxV057FN/2VLajGS+90y4u3YcFGyOuuiMdxYsLybh8PrGOb6Xq+zo7D74TDyq1IU4LalUnGCXRduyv1IuvRuDjQpU6MPVpxUb5c59Lfa3d8SB+TbRe1Uni5LKn6OHbNrN8Iu3vFkHPip5y5vQQnLuK59ipX+ur4v0Xi2AAcpAgAAHxrUozjKEkpRknGUXuaas0yodMYB4atVou/Nk9mT9qLzi/BrjcuQhvlB0ZtQhiYrOnanP8Dbs+Enb3jswVvNs5r2Pz3ehM8i4n4d/w3sl5rZ37OORE9FadxGGtyc24/wAuTcqb93o4WZMtE650ato106M92161Jvv3x45dpXaMknbhq7Nq16VtLBisBRiNZx16Vo/z25l00K0ZpThKM4yzUotSi12Nbz7FOaO0lWw7UqVSUOlxUrwl+KLyZMdFa7wlaOIjybeW3TTcOMd64XI63AWQ1h83n77SvYnkW6vWv5l3Pu39mvUTIHnwuKp1Y7VOcakfrRkpLufUeg4eoiGmnk9oAAMAAAAAAAAAA+GKxEKUJVKklGEE5Sk90Ut7PuczWJXwmMX/AEMR48mwtp7ripTUXva8yJaa8okVeGEhtPdy1VPY92CzfRva7mQfSOla+JltV6kqj9ZJy5ke5LJcEeLrCJOFUY7EXnD4OjDf8cdel6vvf2yXUbI2RhGUbcjpzMo+tKG01FJycmoqK3yk3ZJd7PmiXeTvRXK13XkvR0FtR6nVl6vgrvvsZnJQi5M04i9U1Sse5f8Ai7Sf6B0esLQp0VZuCW3Je1N+s/G/Cx0gCHbbebKFObnJylter7QADB5AAAB58Vh41ITpSV4VIypyXY1Y9AATaeaKX0hhZUatSlPfCTi+i9nk13qz4nyJp5QdG+piorfajP4uL/zX5SFFkos+LWp9/H3r2l7wmIWIpjZ07eO/14GTIBvOg++ExlSjLbpzlB/WjJq/Y+vuZK9Fa7WtHEw2ujlKaSfGN7PhbuIcGa7aK7V869e85sRhab1/9I59e/v2lw4HGU68I1KUtqMr2dmt2/J7j1HD1OjbCUe3lH/iSO4Vy2ChZKK3NruZS8RWq7pwjsTa7mAAazSAAAAAADyaThtUa8frU6kfGDPWazjdNdeQMp5PM/Pad8zKMWtdPesjKJzm6n0KT1ZsjZGEEZ5p55xulfLryss2XNqvoxYXD06VrTklUqdtSSz77JKPdFFe6g6K84xKnJcyhaq30OV/RrxTfuMts4MbPVQXF/YrvLeJzaoXF/bw17V0AAHCQAAOXrBpDzahUq+0k4wXXN5R+OfcmZjFyaSPUIOclGO16HUBHtTdJecYaF23Oj6GV3m7JbL7bxaz60yQnqyDhJxe49XVOqyVb3PL3x2gAHg1ni0lg416VSjLdUi4337L9l8Gk+BUWIoSpylTkrSi5Rkupp2ZdRX+v+jdipDExXNq8yfZNLLxS+DJLk67Kbre/Zx/KJvkXE8ybpeyWq4r1XkkRMyYMk2iy5gyjAXQZQLW1YhbC4ddcNrxbf7nVPBoX/l8N/c0f/Gj3lVtedkn1vzKLiHnbN9b8wADWaQAAAAAAAACgtJQ2a1aP1alSPhJr9jzo9+sUbYvF9lfEeHKysc9E/FZxTL1CecU+peRsjc0R39TdE+d4mEZK9Kn6Wp1OMXlHi7K3VfqMyajFyexGLLIwi5y2IsPUrRXmuGhdWqVbV533q65seCtxuSIAgZycpOT3lKtsds3OW1vMAA8msFe+UfSV508LF5QXKz/ABSTUVwWfvIneJrxpwnUm7QhGU5PqildlL6QxUq9WpWl61SU5tdV9y4Ky4EhyfVzrHN7vN/gl+R6Oda7H/r5v8a8cjv6g6R5LEKk3aNdbHZt3vB/1R94tAounNxaknsyi1KMlvTTumi5dEY5YijSrL+0inJL2ZbpLg00e+UaspKxb9H2e/A2cs05Sjat+j4rZ4eR7wARhCA5um8CsTRnRe+Sbg+qa9V+PwudIGYycWpLaj1CbhJSjtWpSk4tNqzTTaae9Nb0zBJNetGclW5aK5te8n1KovW8cnxZGy1U2KyCmt5dqblbXGa3r33GQt670As8l1pG6K1NsXqi4tHw2aVKP1YU14RR6TWKsrGxTs89Sht5vMAAGAAAAAAAAACkNcIbOOxa+/J/mW1+5yEd7X6Fsfie3kmuNGH73OAixVLOuL6l5IuVEs6oP/qvJGyLa8nuiuQw3KSVqmJtV7VBLmL4t+8V1qxot4vE0qPsXVSo/q04u8u6+Sv1yRdsYpJJZJZJLJJHFyhZklWuL+3r3EXytiMoqpb9Xw3L79iNwARRAgAAEQ8oekuToKhF2lXfO7Kcc34vZXdcrZHY1u0n5xiakk+ZD0EPwwbu+POfc0cZFjwlXw6knt2vt/Ba8DV8GhR3vV8X6LJG6J35N9Jf8TCye700PgpL+l8WQNHu0Pjnhq1KsvYkm0umLya4ps94ir4tbh3cd3obMVV8aqUN+7ju9OGZdIPnSqKSUou8ZJNNbmnuZ9CslQAAAORrJo1YnDzppXmvSw/HHcuKbXEqndkXaVfrjo7kMQ5RVoV71Y9SbfOXB59zRMcl3banxX39e8m+SMRlnS+K+/r2M4Z99Hx2qtKP1p04+MkjzHv0Ev4nDdtWh4cpG5LyeUWyblLKLZb4AKgUkAAAAAAAAAAAAqHylwtjZfep0pfBr/1IsiY+VVWxVN9Dw8PFTq/7Ea0No+WJr0qEbp1JRi5L2YLOUuCTfgWLDZKiLfR5FpwtiWHi3sS17CxfJrojkqMsTNc/EO0b71Si/wB3d9qUSbHww9GNOMKcEowhGMIxW6MUrJLgj7kDbY7Jub3lbutdtjm9/tIAA1moHE1r0j5thqtRO05ehg+nbl0ruScvdO2QTX3BYvFTp06NKpKlTjtOUdm0qkr33voSX5mb8NXGdqUnpt1095nRhYRnalJrLa8/e/YV+ncyjrrVfH/Zp/8Ab8zP0Xx32afw+ZZPi1/Uu9Fk/UV/Uu9HJRsjq/RjHfZp/D5my1Yx32efw+Y+LX9S70Z/UV/Wu9E41E0jy2GUG7zoPku3YavB/wCa90k5Xmp+jsZhq6c6E40qidOo8rRvmpWT6Gku5ssMr+NhGNzcWsnrp4+PgV3HQjG5uLWT108fHwAAOQ5AcDW/RvL4eVledG9aPW0lzlxV+KR3we67HXNTjtR7qsdc1OO1MpBHW1XjfF4dffi/DP8AYaz6N82r1IJWpz9JDq2JPdwd1wR9dS43xlHs5R/4Uv8AYtNk1KiU47Oa2u5lpstUqJTjvi34MtQAFTKmAAAAAAAAAAAAVh5WoWq4aXXCUfyz/wDo93ku0TsxnjZLOo3Rp/gTTk13ySXuvrM+UzASr1dHUqa59SVaknvSbdPN9iW032Jk1wGDhQpU6NNWhTjGnHrtFWu+0krbubg4QW159yk/N/ckbb8sJCtb8+5N+b+56wARpHAAAAAAAAAAAAAAAAAAAAAEX140Zy1DlYrn0Lz74W53hZS91ka1ChfFp/VhUfwS/csqcVJNNXTyae5ohWrWjXh8fiaTT2VTnKDfTCVSGz35Zd6ZK4XEf41lb3JtcH+de0ksPf8A41lb3LTt2+OvaycAAiiNAAAAAAAAAAAAPJVwkJzpVpK86KqKH3XNJN99lbiz1gGc2AADAABGNetNyweHXJy2K1aShCVotxis5ys8nlZe8jZVXKyahHaz3CDnJRW8k4KZWuWkPtD/AE6P+kytcdIfz3+nR/0kj+0XfVH+X9Tq/QWdK8fQuUFOfTDH/aH+nS+Rla4Y/wC0P9Ol8h+0XfVH+X9TP6CzpXj6FxAp76YY/wC0P9Ol8jP0ux/89/p0vkP2i76o/wAv6mP0FnSvH0LgBUH0ux/89/p0vkZ+l2P+0P8ATpfIftF31R/l/Uz+32dK8fQt4EQ1F09UxKq0689urC1SMmopuDyasl0P+pEvI+6mVM3CW1HJZW65OLAANR4B5vNo8py3t7Do3647Sdn3NPxZ6QZTyGbQABgAAAAAAAAAAAAAAAAAAAp7X/SvnGLnGLvTw/oI9W1GXpH+bL3UWdrBjZYfD1q8IuU4QbilFy5zyTaXQm032JlGN3zvdvO7d2+1smuSKM3K17tF9/fWd2Cjq59hsjKNEbIm8iQ5xujKNEbIzkOcboyjRGyGRnnG6Mo0RsMhzjq6uaR82xFKq3aCexU/u5ZS8N/BFzFClt6l42VfC0nNS2qd6O000pqK5rTfrZWz60yF5Xp+WNq4P7HDjoZ5T7PQ74AIMjgAAAAAAAAAAAAAAAAAAAAAAAARPWDUnD4m9Sl/D1nntQilTm/vw3cVZ95LAbKrp1S50Hk/fY+09Rk4vNFGaa0DicHK1aFot2jVjzqc+6XR3Oz7Dmo/QFejGcXCcVOMlaUJJSjJdTT3kH1g8n0J3qYOSpS38hNt03+GW+Pdmu4nMNytCfy3aPp3fjy4HZXik9JFcI2R9cdgquHm6VanKlJezJb11p7pLtV0fBEusms0dPON0bJmiPthqE6klCnGU5yyUIRcpPggZ5xqj26M0ZXxMtijTcmvWdrQh+KTyRL9A6gvKpjJWW/zenLP35Ld3R8SdYTC06MVTpQjThHdCKUURWJ5Urr+Wr5n07l69nec9mLUdI6+X5IvoLUijRtPENV6m/Zt6GL7n6/HLsJdGNslklkktyNgQV19l0udN5+9y3HFOcpvOTAANR4AAAAAAAAAAAAAAAAAAAAAAAAAAAAAAPFpLRtHEwdOtTjUj1SWcX1xazi+1Ffaf1AqUr1MG3Whv5GTSrR/C90/g+8s4HThsXbh38j06N3vrR7hZKGwqjQGo2Ir2niL4ek89mS9PJdkX6vveDLF0TobD4WOxRpqN/Wm86k/xS3vu3HSB6xONtv0k8l0LZ+TM7JS2gAHIawAAAAAAAAAAAAAAAAAAAAAAAAAAAAAAAAAAAAAAAAAAAAAAAAAAAAAAAAAAAAAAAAAAAAAAAAAAAAAAAAAAAAAAAAAAAAAAAAAAAAAAAAAAAD/2Q==;" parent="1" vertex="1">
                    <mxGeometry x="370" y="325" width="74" height="74" as="geometry"/>
                </mxCell>
                <mxCell id="31" value="" style="shape=image;verticalLabelPosition=bottom;labelBackgroundColor=default;verticalAlign=top;aspect=fixed;imageAspect=0;image=data:image/png,iVBORw0KGgoAAAANSUhEUgAAAPEAAADRCAMAAAAquaQNAAAAxlBMVEX///9BuIM0SV5OvIs4UWJCvoUzPltBu4Q0Rl09t4EzQFw0RV0os3gzQlw4tn80tX04cGry+vb5/fs2W2M/p33a7+VBtYI7hnE7i3M3ZWbL6drm9e4jPFSZ1bg8lHa849Ci2L45d2yGzqw+n3pArX9qxJo1VmI0TV8/pXw2YGXg8um64s5Wvo+DzaoPMUwcN1Fuf4mOnKI4bGmg2L06f287iXJ3yaJDXGqhrLHb4eFPY3G7xMft8fFqfIaLmJ/M1NVcb3wArW08K6G+AAAH1UlEQVR4nOWdaVsTPRiFmaHQAl0EBRVBEEHcWFRecEHR//+nXkHiBW3mzHOSPFnG+7OdJKTklHNfqXNH8xxndU/K4cWcGxfiIXr1GTf9am9udbjEUPXrQS1l67PTgj9viUcY1P2Kmv9wdW5ue1Ix9J8vi+dTn1w6LPjyWD7A8vM+NfvJ9vUI4yXqRQsPiU0+dVjxqfz5g4cL1NyXxjcj7JCb/GhRvgfHX+gFfyG2ePERt8XDnT9jvCc3+cGKfBO+0iv+Kt/ilQfkFr+/HWN9SL2u2mB+k7+RC/52In/4aIOb+HDdjHI+pl7YfzySz6omV0w8efSYe0+Pj/6Oskpucv9QPq2tD9SCP8iTqT7kFlxdJ5NhVzGhjpmEopLpJZlMu3dHol76+/B6QyQIk1Dfiee+4Y6tqro3EptQ+zoJdcUk0z633uHm/bEOyIR6IU+oWv7x+kL+0JUXZDIdTI31lk0oYsXihGKSaYWbbzV8Nj3aHplQT4iE2pIteI04p0dPyGTamx2O+02u+j3i47UsoX4QfzO9It/Tk7XZ8diEeskcXpKEYpJp0SuZDPPUM6qFp0SSfBes+CfxvKdkMs1bR9wkD6995mPIVeuCr4hjyzeZDAfc4bVwJj+8Br3WFRPnwujMM5kMz8hNruRzbC+AiKqnrsl5ziaTgU4o4n29ZTks78AkE1v1jLebh52Qn7xeEQn1A644djIZ3pEJ9TrUx2uq6nlNJtM79KOeJzf5I1EA/QTjEsm08tGx6rGjmVAnzQlFVT1sMq03DnvDObnJRELVh42jEp0KnUzneMF8Qsnn2pxQVDJ5VD12EiiKS+I97SYhMPEVxSmRTKyEWGpfMF0AeSdUDAmBia0oYkgIDK0oiOPaUgDFkRAYTUUxm1Dy1/pICIyqophOKEZC9IInk0FTUUwlFJVMQaoeO9SDvRQFo8f9JAQmmkTnJASZTA1Vjx02oQhFMbirKGJKCEwkRUFJCDaZ3lIrpgug/1wURWQJgYmiKFJVPXYiKIr4EgKjryjiSwiMuqJIISEwioqivlYUKSQERllRpJEQmD3y8KIUxWUaCYHRVBQMEZLJwCoKJqEIwkoIjKKikENLCJdkMmgmlJhlparHjqaiEBJcQmA0FYUUtarHDq0oQh9eGhICo6goJKhICIymRBegIyEwioqiHSUJgdFUFK1oSQiM6i2KlgVrSQiMpqJoQU9CYD4pKgpIjKrHDjUspygQqhICo6koALoSAqOoKJpRlhAYWlGEOK61JQTmSPEWRQPqEgKjqSjsDHrkseVe9djRVBRW0iWTgRqeUxTWLY4hITB0AeS3yXEkBIa+5+dzeLFVzzhkMhnoAsgnkwfkWK4SAqOpKKaIJiEw8RRFRAmBiaYoYkoIDCvRHRVFVAmBYRNqw22T40oIDJtQTooisoTA0AWQ0x4nqnrsbJN/QzkUQPElBIZNKFpROH4dkx5sQtEFUAoJgVFWFEkkBIZWFNwm55RMBlVFQUsIzWQyqCaUz9cx6aGoKDRvQviwRB5eYkWRUEJg1BRFDlWPHSVFkVRCYJQUBa3Hg0oIDKsoRLcoEksIzBqbUAJFkVxCYBQURXoJgSF/5doVRQYSAhNcUeSbTIbAX0U4IpNJRUJgAt+iyENCYGhFgRIqEwmBCakoaAkxjppMhoCKIh8JgQl2iyIjCYEJdosix6rHTiBFkZWEwIS6RZFl1WMniKLITUJgAtyiSHATwocAtyjykxAYb0WRoYTAeN+iSHMTwgdPRZHoJoQPnrco8pQQGC9FQSfTburlXkNN+b6iyFZCYDwUBX0TInEyGZwVRcYSAuOsKNLehPDBUVFkLSEwq063KAbsHb24EgLjpChylxAYaup/FEX2EgLjUAAtZy8hMLSiWMzhJoQP/C0K8t+nkBAYUlFUZBQnkRAYVlFwqN2E8IEsgDhSSQgMqSgYkkkIDJtQBOmrHjtkQslJKCEwdEJJyaHqsUMqCilpJQSGVBQyEksIjEpC5VL12CELIAnJJQSGVRQCck0mA6ko2olyE8IHVlG0km8yGUhF0UZeVY8d8hZFG6mXI4BUFJi8k8kQMKEyTyYDqygA+UgIDKkomslIQmBYRdFIjlWPHVJRNC54N/VC5JBFZQN5Vj12ghRAuUkITIACKDsJgQlQAOUnITCsophhUkoyGXwVRZYSAuNZAOUpITDkFz1NbXFJyWTwSqiyksngkVDZSgiMR0LlX/XYcVYUGepxIY4Jpf51THo4JtSkiKrHjlMBVEjVY8dJUeQuITDk/5Z0TfYSAuOgKEpNJgOtKCafUk/ZF1KiZ63HZexw7+uSk8lAJVTRyWSgFEUpEgJDKIoM7uiFgEioYXFVjx2xoihJQmDEe5x6osEQFkBlVj12RAVQNnf0QiAqgEqTEBiBoihOQmDaFUWBEgLTWgCVKCEwLYqiSAmBaUmoLiWTASZUoRICAxOqW8lkAIqiXAmBaSyACpYQmMaE6l4yGRru+XWi6rHToCjKlhAYq6IoXEJgrAVQ6RICY1EU5UsIjOUWReopKTOjKLogITBTiqLDyWSYSqhuSAjMPUVRzE0IH+7doph0OpkMdxRFdyQE5t9JJsPfAqiLVY+d2wKosJsQPtwWQN2seuzcKIqOSQjMtaLonITA/E6o7lY9duY7KCEwm7/+mWQy7KYa+H/Nwf9ngke70wAAAABJRU5ErkJggg==;" parent="1" vertex="1">
                    <mxGeometry x="600" y="325" width="76.48" height="66.32" as="geometry"/>
                </mxCell>
                <mxCell id="32" value="" style="shape=image;verticalLabelPosition=bottom;labelBackgroundColor=default;verticalAlign=top;aspect=fixed;imageAspect=0;image=data:image/jpeg,/9j/4AAQSkZJRgABAQAAAQABAAD/2wCEAAkGBxMSEhITExMVFhUXGBgVFRgYFRgWFxcSFxYWGBYVGRUYHikiGBolHRUVITIhJSkrLi4vFx8zODMsNygtLisBCgoKDg0OGxAQGy4lICYtLy8tKy8vOC0tLS0tLS0vLS0tKy0vLS0tLS0tLS0tLS0tLS0tLS0tLS0tLS0tLS0tLf/AABEIAOYA3AMBIgACEQEDEQH/xAAcAAEAAgMBAQEAAAAAAAAAAAAABQYDBAcCAQj/xABLEAABAgMDBwgFCAgEBwAAAAABAAIDBBEFEiEGMUFRcZGhEyJSYYGxwdEjMkJikgcUFRYzU7LwNFRzgpOi0uFDY3LCFzVks9Pi8f/EABsBAAEFAQEAAAAAAAAAAAAAAAACAwQFBgEH/8QAQBEAAQIDAwgHBQYFBQAAAAAAAQACAwQRBSExEkFRYXGBkaEGEzKxwdHhFBUiQvAjUmJykrIzQ4LC0hYkU6Lx/9oADAMBAAIRAxEAPwDtSIiEIiIhCIiIQiIiEIiLxHjNYLz3NaNZIA3lCF7RQUzlZLNwDy8+63DefBRUfLk+xBG0v8KeKdEF5zKFEtGVZi8br+6quSKgPyzmDmawbGnxKwnK6a6Y+BiV7M/UmDbEsNPD1XRUXO25YTQ0tO1g8CFtQst4o9aGx2wkeKPZomrigWxKnEkbvKqvSKrS2W0I/aMczrBDx4KbkrYgxsGRQTqPNO51Cm3Q3NxCmQpuBFuY8HVn4G9byIiQpCIiIQiIiEIiIhCIiIQiIiEIiIhCIi+VQhfVp2jaUKAKxHgahnJ2NGJVft7K0NqyBQnMX57uwae3DaqXGiue4uc4ucc5JqSpMOXLr3Xd6p5y1mQjkwviOnMPPddrzKzWnlm91RBaGe9g53w6FW5mO+Ibz3Fx1kknjmWJFMaxrcAqCPMxY5+0dXVm4YcqoiIlJlERELiIiIQiEIiEEVUpZ1vzEHAOJZ0XYjsrm3hW2ycrYUSjYnondZq09ujt3rnyJp8FjsynS9oR4FwNRoN43ZxxpqXYgV9XM7Gygiy5ABvM0sJw7DoPDqV9su1oUw29DOI9ZpwLdo1deZQokFzNi0UpPwpi4XO0eRz/AEaLfRETSnIiIhCIiIQiIiEIiLy94AJJAAFSTgABnJKEL5GjNY0ucQ1oFSTmAXP8o8o3RyWMq2FqzF/Werq3rHlLbxmHXW1EJpwGa8df9tG1QanQYGT8Tse5Zm0bSMWsOEfhznT6ZrsdmJERSVToiIhCIiIQiIiEIiIhdRERC4iIiEIssrMvhuD2OLXDMR3dY6liRC6DQ1C6Rk9b7ZkXXUbFAxboI1g+GhTa4/CiFrg5pIcDUEZwda6Nk3bYmWUdQRGjnDWOls6tG5QY0DJvbh3LTWbaPXfZxO1mP3vUeulTSIijK3RERCEREQhFSctbavEy8M4D7QjSejs8disGUtqfN4JI9d2DNuk9gx20XMiVKlodfjO5UdrzeSOobicdmjfn1bUREU1Z1EREIRU7LLKOPLR2shXLphh5q2pqXvHgFcVzb5Sv0qH+xb+OImo5IZUKdZ0NsSZa14qL7tyuttT74Uo6M2l8Ma4VFRUllcO0quyWU8w+TmYx5O/DfDDaMwo5zQajTnVdncnZuHBMV/2YAJ9IDgSKc2vWFZfky+yjftG/hTQe5zwLxcphloEGVLwQ+jm3jaLs/wBFQRy5m/8AK+D+6mslMppiYjmHEuXbjnYMpiKUxUV8pH6U39k38URdIYeaPzoXYYflkF2HNJm3wGyzXthAF4P9NN1+Opc/snLiNyrBGEPkyaOoyhAPtVroOOyqlcr8qnS72woFwupeeSLwAI5rdtMe0Kk2LZjphz2M9ZsN0Ro6RaW83tBPbRDZrxLfOHVumIITa6aMcXHYLoG/UmRFiZPj3qwiSUmIwNAKUBbmJd2frVqvt0zlPMNkYMccnffEcw8zC6L1MOwKxZLz748uyLEpederQUGD3AYbAqHO/wDKpf8Abu7oimclsppaBLMhxHODm3qgMJzvcRiOohPMiUcMo5gq+PKgwXGEy8RCLhfQA6Myu6LBITjI0NsSGatdWhIIzEjMesFZ1JVQQQaHFERELiLPJTT4T2xGGjmmo1dYOsFYEQugkGoXV7Kn2zEJsRunAjS0jOD+dS3FznJK1eRihrj6OJQO1A+yfPqK6Mq2LDyHUWxkZr2mFlHEXHb6+YzIiImlMREUblHPcjLxHg0NLo2uwr2Cp7F0Ak0CS97WNL3YC/gqPlTaXLx3UPMZzWf7j29wUMgVOFtT0WPMQ4DIJEKI5vPFDQOcG53YnmlWdzAAsXSJMvfENNJqaAX08QAriiqc7a07Ly74sZkEPD2BlMQQa3q0fsWl9Ypw435D+Mz/AMiOsGg8F32Z1K5TaVp2hfcK02VV5RUy0spJlszGgwzLNazNypuVFAc7ngE4qWybtOPGdE5Z0A0DbvIva/PWt6640zBAeCaBJfLuY3KcRgDSt9DqxU6oS28mIU3EESI6KCGhnMLQMC46WHHnFTcV1Lumo011keCxcv7rePmoMa0ZdjjDfWo1eqvZLo3aMaGyYguaA4VByiDQ/wBJprWKfs5saC6C4uDSA0kEXqAgjEimjUtawrDhyjXthuiEOIJvkHECmFAFvct7rePmnLe63j5pv3rK1rfXZ6qR/pS1cgsymUN9Mo0r+lRFtZLQZqIIkR0UENDOYWgUBJ0sOOJU2G4U7Fj5b3W8fNOW9xvHzXRa0qDUV4eq47olajmhpcygwGUbtnwqIsXJWDKxOUhuik3SznlpFCQdDBjgtu2bFhzUNsN5c1ofyg5OgNaOGkHplbnL+63j5py/ut4+aSLUlQKUNNnqlHorapeHlzMoZ8s11fLmUPEyTgul2S5dFuMeYgNW3qmuc3KU5x0LR/4fy33kf4mf0Kzcv7rePmnLe63j5rnvOTOY8PVLb0ZthuERuntnH9Kx2ZINgQmQmFxa2tC6hOJJxoBrWysXL+63j5rMKEAgAYmuyjad6ky8/BjO6tla7NG9Vto9H52ThGYjlpFcziSSf6Rt2L4i07YmnQoEWI2l5kNzhXNUDSqpN5VTAErcEAOiw+UcX8xodfePWLwAKDSpbnhuKqIUu+IKtpjS80zV4UCu6Kq2JbUzEjMZEdKFhvV5OKx0TBpIoL5JxpozVVqSmuBTb2ZBpUHYa8wi6VkraXLwBU1ezmu66eqe0cQVzVWDIqe5OYDT6sQXTtGLT3jtTUdmUzYptlx+qmADg64+HO7YSuhoiKuWuRUv5QZvGFCGpzztOA7jvV0XM8rI9+ai6mlrR2AAp+WbV+xVdrxMiXyR8xA8fCm9RCpMOVtCBMTUSBAY5sWI41c5vq33EEAPBHraVZJ60XQ33Q0HAHGqwfTDui3irMyzngHxWfgl7AaNBDhS/aDmIzgKOmfn0aXiNjSsJzr7LjK81wxvE0iZxhpGfSq5OZPTcQUElBh41qx4BzHDnRSKY8FdPph3RbxT6Yd0W7iuOk3Ox8PJPwpiNCNWNA1VdThl04qBtyzJh0eI5kjAiNJwe5xvO5oxPpR3BbmRVlRoL47osIQg+7dDXCmBdUCjiQMRnUj9Mu6LeK+/TLui3ij2N2VleST10bqjCoKEAYnNTS4jNoUtMHBvVhxKwLXk50xA6oAoa4bFsLJ2rDLJt4Oo8WhendGnE2XBBzZQ4PdTlREUzYeTkWaa50N0NoabpvOcDWlcKNOCkvqDM9OB8T/6FDEGI4VANFaum4DHFrngFVRfYYqQOsK1fUGZ6cD4n/0L6zIOZBBvwc49t/8AQlezxfulJM7L/fCgfmrdXFffmrdXFWr6mR+nC+J39C+fUyP04XxO/oXPZ4v3SmvbYP3xxVW+at1cU+at1cVafqZH6cL4nf0qHtOQdAeYby0uoDzSSMdoCS+FEYKuFEpkzDiGjXAlQUdoDiB+cFmhnADt3/8AxYpg8521WGz7HY9jHEmpaNmnzUqQmoUtFy4poKUGe8keFVT9J5aNMyTYULHLBNTS4Nd4kLneUT7QeY0GFAhuguFwOqA4tLRU4vGNa6FHTVjTHJSzRKQ4pZCuuvuxa7lHktFyI0HAg6c6679BQ+k5PoKH0nKzNryRNS8/p9FjWWXPMaGtY0UNe0RU0peQ4HDRTwXIbAsWYZOQor5dkFjQ4G44EYseAaF7jUkgK9qx/QUPpOT6Ch9Jy6y2ZJgoHH9JSI9kT8Zwc5rbhTtayc5Jz6VXF7hxC0hzc7SCNoNRxCsH0FD6TlBzsEMiOaCSBp06FMlbQl5lxbCJNBU3EXKum7NmJVodEoKmgoa34+C6xLRg9jHjM4AjZSvisihcjo9+Vha2lzdxqOBCmlHcMkkaFq4MTrYbYmkA8QjVyOeiXoj3dJxdvJPiuuE0BK42zMFJlBjuVLbjrobfzHhTzKhbbHPB90d5WgApO3Riw9R4U81I/JzMBk/BqQAQ9pJNB9m4jHa0K5a/Jg5WgE8FXSzMvJac93NVu4dR3FCw6juK/Rfz6F94z42+a9QpljjRr2uOegcDh2KD7z/Bz9Fce6h9/l6rjLIAoOYM3RXrkB0B8K7Wib94/h5+iV7r/Hy9VxN8MBrqADspoK11bvlDiVjhuqGN95x7nBVFZ+2DlTAfpaDzI8Fs+jgyJMw61yXuHJp8VevkyfhMN64Z33x4BXpc8+TSL6WM3WwH4XAf7l0NOSZrCG/vUK1RSadu7giLi0+9zYsRt52D3DOdDiFihR3Xm852caTrTHt/4efopnuW6vWcvVduRcj5Q6zvKcodZ3lc94/g5+iR7o/Hy9V1xc4ytfWbidV0fyNUVyh1neV4cUxMTXWtDaUvrj6KVKSPs7y7KrdTCmcHTqUY84nae9XmQbSFDGpjfwhUTSugQ20AGoUVZMZgnbSNzRt8F9WeXGdTVhfZfvHwWvL/AKS7afwpcSR+zhuyu2WjDCpGu+m5Uwi3uFMFp06uCXergrFFjBuc0Xj54zpBPGx4bTQxwNoH+SQJgnBv1wVZmBiFS7SdWK89Z8Vdpx1X1/Ocqhxn3iT1/wB1P6NN+KIRmAHEk9wVF0mf9nDbpJPADzV2+T+L6KK3ouDviFPBWpUv5PDjMDqhn/uK6K5jikQ/WZdsx2VKs3jgSF8cKg7CuOMzBdlauQzkK49zeiSNxI8E9KHtDYq+3W/w3fmH7fIqFt0YMPWeI/soyXgOiOaxgvOcQ1o1uJoBvUvbY9GOpw7itGw4wZMQHk0DYjHE6g17STwVzBJEOo1qslwHAA6fFXqwPkyOD5t9NPJsOOx0TwbvXQbNs2FLsuQYbYbdTRnOsnO49ZWr9ZpP9ag/xG+afWaT/WoP8RvmqSLFjxe3XZmWqhQYMHsU25+K3JycENt4te7UGMc4ncMO2iqVq2zOxKthwI0IdTHF5/eph2b1Zhbst9/D+ILdgxWvaHNILSKgjEEawkw3CFe5lTrREZ1tzX02LjsxDcHODw4OxqHAh1TQ4g4181pKbytjVmZg++G7qN8FCFQbdvfDec7e4+qu+inwwIrBmee4DwVo+Tp9Jpw1w3jiw+C6YuR5JTbYU1De9wayjg4nMAWOpXtouj/WGV/WIfxJiSiNEOhOdPWtBeY4LQTcMBrKh5rIiFEe95iPF9zn0AbQXnE0GHWsbcgoIIPKxMMczfJTn1hlf1iH8SfWGV/WIfxJzqZfVx9UwJmeApV3D0UV9Sof3j9zV9+pUL71+5vkpj6bl/vmb1mlJ6FFryb2upStDWla07iuCBLm4AJBmptoqSeHooL6lQvvX7m+SpMy0NLwMQC4DYKrrb30BOoVXIJh3NcervUSdhMh5OSKY+HmrGzI0SNlZZrSnj5LRlm1ewa3AbyFfQqRZTaxoQ99p3Or4K7qomDeE9aR+Jo1d6sNhfZfvHwWvL/pLtp/Ctiwvsv3j4LXl/0l20/hVnE/gy35md4VGO0/YVtWt6rdqi1PxYDXUqK0WOJCa1pIAFAdASZ6y3x4pi5QAoNtw4c1yFHDW5NFWJl1Lx1DwVEartPmjXnqPiqUp/RofZPOtvIE+Kz3SY/aQhoDuZHkrh8nY50xsh971c1Vfk+hejiu6Tmj4QT4q1KyjmsQ/WZSbMaWyrK6zxJKLmOVEG5NRhrIcP3mgnvK6cqR8oEtR8KKPaBadrSCN4J3Jcs6j6aUzbEPKl8r7pB8PEKkWuPRO6iO8ear5KsdoisJ+zuxVbKvJbs71n4PZK7S75P5AiohOxGHpYmrD2lxUHBd3sDKSWjw4QbHh37rQWF1114AVF11CcdSzWjkvKR68pAZU53NFx1dZcyhPaqyBOvguLY1Tvw3HStHMSTIwDoVBsGNaaNC5c3MNgXXbFbSXgD/AC2fhC1ZHJ2WhUuwmkjS7nn+atOxbE3asGFg+KxpHs1q74RjwTczMCPRrAUuUlTL1c8i/wCsTRckysj8+M7XFd+Jx8FruznasGUD6tBOl5Pf5rMTgFE6Qso2EfzD9vkVb9EYhc6OPyn9/otizpblYsOGTdvvaytK0vECtNOdXP8A4ef9Sf4X/uqdZT7seC7VEYdzwV2pVEpAhxAcoV+tSvLUmo0BzerNK6h4hcbt6zPm0Z0K9eoGm9S7WormqVpQfWbtHer5lfk1GjxeVhXCLgaWl111QTmqKaRpCp8eyI8Fw5SE9uIxLatz9IYcVHjwSxxuurcpkpNNiwm/EC6l4z12eVyzK45ANwjnWWDcHear8pYcxE9WE6mt3NG3nUr2K55M2Y+XhuDy0uc69zSSAKAUqQMc6dk4TusDqGl9+5QLRjs6ksyhU0u3gqQtR92DGOqG87mlcmmvUPZ3rqWUT6S0f/QRvw8VyqdPN7UufPxtGpJscfATr8PVZMn4ZdMQwM9TvoaK5xYTm+s0jaKKqZJGkyxxzNF7sBHmuoQp6G/AOGw4cDnUNktDjkgvo7MPSoJv0LlqRXNjCgrcO8rBYX2X7x8FHxHkRYhBobxU7DhhowAAz4Cih4cIOjvacxJ7iU9aEF7ZeFCB+LKaBmvw3KrhOBc52pYnxnHO4ntKmZvCG7ZTwSHKsb7I2nFYLQmGlhAcK4ZscxquQ5Z8nAivivBLm3bgc5xrVDniI5oaMFUrZiUhRPz7QHiqkrPb7vQO67vfXwVZa0kgDEnADWTmCt+jzKSp1uPCjfGqyvSN/wDugNDBxJcfJdGyLg3ZVh6Zc7jQdwU4sMnAENjGD2ABuFKrMn3uynEq7gQ+qhtZoAHAURROVMly0s8AVcOe3aM47W1HapZFxpLTUJUSGIjCx2BBHFcXmRVjxrae5VhX/KOzuQjvYBzTiz/SdHYa7lBxZCG72QNmHcryBGa0aisYKwXOY/EHuVcUpZ+UE1ApyUd7QMzb15vwOq3gvcWxui7sI8R5LSjWfEb7NdmP91Ky4bxQ03+qeZGANWmh4K4zNtTEYc+K4gjEA3W/CKAqLizLGZ3AdWncFDiHHidKnXzRuWeFY3Sd2AeJ8k2OrYKVpqCU+MCauNTxWG1ZxsS6G1oK6KZ6KRacBsHivsKzobfZrtx4Zl6i5wddDvr5qit94dBZTM7vB8lqOh0wHTUWGM7K8HAf3LyCdGfRtXVZLK6ViU9JcOqILv8AN6vFcqRZyDHdCJyc6283JsmQA+t2FNf/AIu3wIrXi81wcDmIII3hZVxCXmHwzVj3MOtriDvCnrOyymmEAuZEGA5zakdraHfVTmT7fmFOfqqiLYsQdhwO24+PguorWmZqHDFYj2N/1OA3Vzrn03lFMxP8QtGpnN4jHiotxqanE6Sc+9JfaA+UcfrxSYdkH53cL++it+UlvwXwXwoZLi67jdIaKOBOJpq0KizxwG1bS0552bt8FAixXRXZTlbysuyAMhmmqkslW+kedTabyPJWZUiSjuZi11MTwGrtUtAt6IPWaHfy92HBLNkTEeGI0OhBzVobjTPdm0hZq1Lal4M8+DEqMnJvpUXtDs1+fQrNBmHt9VxGw4blnlo7rxfXnVz4aQoKFbcI5zd6iKjeFuidYBW+KbVAjSs3CowtcL7saV1UqK7OK7Cm5aKCWPadN4rvGPFSkWIT6zq7SsD4oUHHtyGPVvOO4bzjwWhHt2IfVbdO88cOCehWHNxTlObTW4044u5KJGtuShXB+VqaK8+zzW9lEfRAdfgVr5HyXKzLHEc2Hzzt0DfQ71FR5hz8XOr+d+9X/I2zuSgXiOdEoXdTfZG4k9q1ctLmTleqJqann6LPCILQnxFAo0AG/wDDhxNOBU8iImloUREQhQmVdlcvBJaKxGVLdZb7Q4VHWAubrsaoOWNjck/lmD0bzzqew45uw+fUpctE+Q7lQ2xJ1HXtzdrZmO7A6qZgq0iIpiz6IiIQi8vhggc4ClBnx8l6RMzEuyOzIfhip1n2hGkI3XQKVoReKihoaYjOBgQVhMB1KgV396xlbRC+ux6NNgHHzVPFsX/jfuPmPJbCW6bDCZg72H+11KfrK1F6hHEbR3rO6EDoI69HAeCxugaiDvPhVV8Wz5iHi2uy/uv5LRS3SGzZi5sYA6HfB+6gO4lbLppo1lYXTh0ADivDYPvDZWngvYY2mY166d1PFKh2ZMP+Wm27l2uSYmekdly/8zLOhgyufZ4uWIxHHPX89S9cgRnw1V07FlqTnp2DHfn4orGFYo/mP4Xcz5LPzXTZ+EtBA1vNf+rafvPmuUA6jXTqGsBERW8KE2EwMbgFj5uaiTUZ0eL2nY5sABhsAREROKMRVERe4EFz3NY0Vc40AGkoXcVKZM2X84jAEcxuL9mgb8Ni6Yo6w7LbLQgwYk4udrPkMwUiq2NEy3VzLX2fKezwqHtG8+W7zRERNKciIiEIscxAa9rmPALXChB0hZEQuEVXMbfsZ0s/SWO9V3Vq2jjn2RS65OyrIrCyIKtP5BB0HrXO7fsN8s7pQycHeB1H89QnwY2Vcce9Ze0LOMAmJD7P7fTQc2Ch0RFIVUiIiEIiIhCIiIQiIiF1ERELiIiIQiIvUNhcQ1oJJNAAKknUAhC+AVwGfMNupdByWsLkG34g9K4ZugDo2nSezb4yaybEGkSKAYugZwzzPXo0a1ZFCjx8r4W4LSWbZxhfaxe1mGjWdfd3ERFFV0iIiEIiIhCIiIQi8RoTXNLXAFpwIIqCNi9ohCo9u5IuZV8vVzc5ZnI2H2h1Z9qqpGjftXYlGWvYUGYxc2j+kMD26D2qVDmSLnKkm7Ha74oF2rNuObu2BcvRT1pZKR4VS0cq3WBQ9rc+6qgSM40jONIKltcHCrTVUEWDEgnJiNIOvwOB3IiIlJtEREIRERCEREQhEW3I2dFjGkJjnayMw2k5la7LyMaKOjuvHoCoHa7T2U7U2+K1mJUqXk40fsNu0m4cfKp1Kr2XZUWYdSG2oGdxwDdp8Bir9YdgQ5YVHOiEYvI4AaApSDBaxoa1oa0ZgBQDsXtQokdz7sAtHJ2bDl/iN7tOjYPHHdciIiZViiIiEIiIhCIiIQiIiEIiIhCIiIQi1J2zoUb7SG120YjY4YjettF0Gi45ocKEVCq81kVCI9G9zNtH+XeoqYyLjj1XMcNpadxFFfUTrY8QZ1AiWXKv+Wmw05YclzSJkxOD/BJ2OYf9yxGwJr7h3DzXUES/anaAoxsSBmc7l/iuYNydmz/gO7SB3rbgZIzLvWaG7XNPcuiIgzT9ASm2LABvLjvHlXmqZK5Dn/EjAe61pPE0U1JZMS0LG5eOtxvcPV4KZRNOjPdiVLhWfLQr2sFdd/fXkvjWgAAAADMBgB2L6iJtTEREQhEREIRERCEREQhEREIRERCEREQhEREIRERCEREQhEREIRERCEREQhEREIRERCEREQhEREIRERCF/9k=;" parent="1" vertex="1">
                    <mxGeometry x="609.52" y="455" width="66.96" height="70" as="geometry"/>
                </mxCell>
            </root>
        </mxGraphModel>
    </diagram>
</mxfile>